<svg width="18" height="18" viewBox="0 0 18 18" fill="none" xmlns="http://www.w3.org/2000/svg">
<g clip-path="url(#clip0_552_1570)">
<path d="M5.6115 10.3267C6.1785 9.7665 6.75 9.012 6.75 8.25H2.25C2.25 9.012 2.8215 9.76575 3.3885 10.3267C1.4745 11.022 0 13.389 0 15.384C0 16.8263 1.1775 18 2.625 18H6.375C7.8225 18 9 16.8263 9 15.384C9 13.389 7.5255 11.022 5.6115 10.3267ZM6.375 16.5H2.625C2.00475 16.5 1.5 15.9997 1.5 15.384C1.5 13.6627 3.126 11.625 4.5 11.625C5.874 11.625 7.5 13.6627 7.5 15.384C7.5 15.9997 6.99525 16.5 6.375 16.5ZM18 2.25C18 1.0095 16.9905 0 15.75 0H4.875C3.4275 0 2.25 1.1775 2.25 2.625V6.75H3.75V2.625C3.75 2.00475 4.25475 1.5 4.875 1.5C5.49525 1.5 6 2.00475 6 2.625V4.5H14.25V15.75C14.25 16.1632 13.9132 16.5 13.5 16.5H10.3417C10.1842 17.0557 9.9165 17.5658 9.55725 18H13.5C13.5127 18 13.5262 18 13.539 17.9993C14.7615 17.9783 15.75 16.9778 15.75 15.75V4.5H18V2.25ZM16.5 3H7.5V2.625C7.5 2.22225 7.4085 1.84125 7.2465 1.5H15.75C16.1632 1.5 16.5 1.83675 16.5 2.25V3Z" fill="#545454"/>
</g>
<defs>
<clipPath id="clip0_552_1570">
<rect width="18" height="18" fill="white"/>
</clipPath>
</defs>
</svg>
