<svg width="18" height="18" viewBox="0 0 18 18" fill="none" xmlns="http://www.w3.org/2000/svg">
<g clip-path="url(#clip0_552_1557)">
<path d="M12.75 7.5C9.85575 7.5 7.5 9.855 7.5 12.75C7.5 15.645 9.85575 18 12.75 18C15.6442 18 18 15.645 18 12.75C18 9.855 15.6442 7.5 12.75 7.5ZM12.75 16.5C10.6823 16.5 9 14.8177 9 12.75C9 10.6823 10.6823 9 12.75 9C14.8177 9 16.5 10.6823 16.5 12.75C16.5 14.8177 14.8177 16.5 12.75 16.5ZM13.5 12.4395L14.7803 13.7197L13.7197 14.7803L12 13.0605V10.5H13.5V12.4395ZM18 3.75V8.51175C17.5732 7.98375 17.0648 7.52775 16.5 7.14825V3.75C16.5 3.33675 16.164 3 15.75 3H2.25C1.83675 3 1.5 3.33675 1.5 3.75V6H12.75C11.1435 6 9.6705 6.56325 8.51175 7.5H1.5V16.5H7.1385C7.518 17.067 7.98225 17.5718 8.51175 18H0V3.75C0 2.5095 1.0095 1.5 2.25 1.5H4.5V0H6V1.5H12V0H13.5V1.5H15.75C16.9905 1.5 18 2.5095 18 3.75Z" fill="#545454"/>
</g>
<defs>
<clipPath id="clip0_552_1557">
<rect width="18" height="18" fill="white"/>
</clipPath>
</defs>
</svg>
