<svg width="18" height="18" viewBox="0 0 18 18" fill="none" xmlns="http://www.w3.org/2000/svg">
<g clip-path="url(#clip0_552_1582)">
<path d="M18.0006 3.00015C18.0006 3.3759 17.8544 3.72915 17.5881 3.99465L15.9201 5.76465C15.7731 5.92065 15.5736 6.00015 15.3741 6.00015C15.1896 6.00015 15.0051 5.93265 14.8596 5.79615C14.5581 5.51265 14.5439 5.0379 14.8281 4.73565L15.7566 3.75015H8.99839C6.10339 3.75015 3.74839 6.10515 3.74839 9.00015C3.74839 9.44415 3.80389 9.88665 3.91414 10.3126C4.01764 10.7139 3.77614 11.1226 3.37489 11.2261C3.31189 11.2419 3.24964 11.2501 3.18739 11.2501C2.85289 11.2501 2.54839 11.0259 2.46139 10.6876C2.32039 10.1386 2.24839 9.5709 2.24839 9.00015C2.24989 5.27865 5.27839 2.25015 8.99989 2.25015H15.7581L14.8296 1.26465C14.5454 0.963146 14.5596 0.488396 14.8611 0.204146C15.1626 -0.0786038 15.6366 -0.0658538 15.9209 0.235646L17.6039 2.02215C17.8544 2.27115 18.0006 2.6244 18.0006 3.00015ZM14.6234 6.77415C14.2221 6.87765 13.9814 7.28715 14.0849 7.68765C14.1944 8.11215 14.2499 8.5539 14.2499 9.00015C14.2499 11.8951 11.8941 14.2501 8.99989 14.2501H2.24239L3.17089 13.2646C3.45439 12.9631 3.44089 12.4884 3.13939 12.2041C2.83939 11.9206 2.36389 11.9341 2.07889 12.2356L0.411639 14.0056C-0.135861 14.5531 -0.135861 15.4449 0.395889 15.9774L2.07889 17.7631C2.22664 17.9199 2.42539 17.9986 2.62489 17.9986C2.80939 17.9986 2.99464 17.9311 3.13939 17.7946C3.44089 17.5104 3.45514 17.0356 3.17089 16.7341L2.24164 15.7486H8.99989C12.7221 15.7486 15.7499 12.7201 15.7499 8.99865C15.7499 8.42565 15.6779 7.8579 15.5369 7.31115C15.4334 6.9099 15.0239 6.67065 14.6234 6.77265V6.77415ZM8.99989 5.0259C8.66914 5.0259 8.39989 5.29515 8.39989 5.6259V6.1509H8.15464C7.67014 6.1509 7.21264 6.36615 6.90064 6.7404C6.59014 7.11465 6.46339 7.6074 6.55339 8.0934C6.67264 8.73315 7.21864 9.2559 7.91239 9.39465L9.92839 9.79815C10.1294 9.83865 10.2749 10.0164 10.2749 10.2204C10.2749 10.4574 10.0814 10.6509 9.84439 10.6509H8.19139C8.02414 10.6509 7.86589 10.5706 7.76839 10.4356C7.66189 10.2909 7.44364 10.2759 7.35439 10.2759C7.06864 10.2759 6.88339 10.4604 6.80539 10.6336C6.70714 10.8519 6.74089 11.0866 6.89689 11.2636C7.22539 11.6371 7.69639 11.8509 8.19214 11.8509H8.40064V12.3759C8.40064 12.7066 8.66914 12.9759 9.00064 12.9759C9.33214 12.9759 9.60064 12.7066 9.60064 12.3759V11.8509H9.84514C10.3304 11.8509 10.7879 11.6356 11.0999 11.2606C11.4104 10.8864 11.5371 10.3936 11.4471 9.9084C11.3271 9.26865 10.7804 8.74515 10.0881 8.60715L8.07214 8.2029C7.87189 8.1624 7.72639 7.98465 7.72639 7.7814C7.72639 7.5444 7.91914 7.3509 8.15614 7.3509H9.80914C9.97639 7.3509 10.1346 7.43115 10.2321 7.56615C10.3386 7.7109 10.5569 7.7259 10.6461 7.7259C10.9319 7.7259 11.1171 7.5414 11.1951 7.3689C11.2941 7.15065 11.2596 6.91515 11.1044 6.73815C10.7759 6.3654 10.3041 6.15165 9.80839 6.15165H9.60064V5.62665C9.60064 5.2959 9.33214 5.02665 9.00064 5.02665L8.99989 5.0259Z" fill="#545454"/>
</g>
<defs>
<clipPath id="clip0_552_1582">
<rect width="18" height="18" fill="white"/>
</clipPath>
</defs>
</svg>
