<svg width="18" height="18" viewBox="0 0 18 18" fill="none" xmlns="http://www.w3.org/2000/svg">
<path d="M6.57692 14.25C7.533 14.25 8.30769 15.0892 8.30769 16.125C8.30769 17.1607 7.533 18 6.57692 18C5.62085 18 4.84615 17.1607 4.84615 16.125C4.84615 15.0892 5.62085 14.25 6.57692 14.25ZM13.1538 16.125C13.1538 17.1607 13.9285 18 14.8846 18C15.8407 18 16.6154 17.1607 16.6154 16.125C16.6154 15.0892 15.8407 14.25 14.8846 14.25C13.9285 14.25 13.1538 15.0892 13.1538 16.125ZM16.6154 5.25V11.25H5.53846V5.25C5.53846 4.0095 6.47031 3 7.61539 3V9.75H9V1.5C9 0.67275 9.621 0 10.3846 0H11.7692C12.5328 0 13.1538 0.67275 13.1538 1.5V9.75H14.5385V3C15.6835 3 16.6154 4.0095 16.6154 5.25ZM11.7692 1.5H10.3846V3H11.7692V1.5ZM4.15385 12V2.25C4.15385 1.0095 3.222 0 2.07692 0H0V1.5H2.07692C2.45908 1.5 2.76923 1.83675 2.76923 2.25V12C2.76923 13.2405 3.70108 14.25 4.84615 14.25H16.6154V12.75H4.84615C4.464 12.75 4.15385 12.4132 4.15385 12Z" fill="#545454"/>
</svg>
