<svg width="66" height="48" viewBox="0 0 66 48" fill="none" xmlns="http://www.w3.org/2000/svg">
<g clip-path="url(#clip0_825_12346)">
<path d="M7.53353 6.95801H4.12911C1.85949 6.95801 0.0339355 8.78357 0.0339355 11.0532C0.0339355 13.3228 1.85949 15.1484 4.12911 15.1484H9.65512C9.65512 15.099 7.53353 6.95801 7.53353 6.95801Z" fill="#0A1D56"/>
<path d="M51.6429 27.7842C51.5936 27.7349 51.5442 27.7349 51.4949 27.6855C51.0508 27.4882 50.5081 27.5869 50.1627 27.9322L50.1134 27.9816L49.768 28.5243L49.0279 29.7085L47.153 32.7675C47.153 32.8168 47.1037 32.8168 47.1037 32.8662L46.3142 34.1984C45.8209 35.0371 44.7354 35.2838 43.8966 34.7904C43.0578 34.297 42.8111 33.2116 43.3045 32.3728L43.9953 31.238L44.7354 30.0538C44.7847 29.9552 44.8341 29.9058 44.8341 29.8071C45.0314 29.2644 44.8341 28.5737 44.2913 28.2776C43.7486 27.9322 43.1072 28.0309 42.7125 28.475C42.6631 28.5243 42.6138 28.623 42.5645 28.6723L41.5777 30.2364C41.5777 30.2857 41.5283 30.2857 41.5283 30.3351L40.3442 32.2593L35.0649 40.5483C34.5221 41.3871 34.3741 42.3246 34.4234 43.2127L34.5715 43.8541C35.0649 45.6796 36.6437 46.9131 38.4199 47.0118H38.716C40.0481 46.9625 41.331 46.2717 42.1204 45.0382L42.4658 44.4955L49.7187 33.0635C49.8173 32.8662 49.916 32.6688 50.0147 32.4715L51.2482 30.3992L51.7416 29.5111L51.9883 29.0671C52.2843 28.6723 52.087 28.0309 51.6429 27.7842Z" fill="#00D392"/>
<path d="M44.0147 32.6444L46.7284 28.1545C47.0244 27.6611 47.6165 27.5131 48.1099 27.8091C48.6033 28.1052 48.7513 28.6972 48.4552 29.1906L45.7416 33.6805C45.4455 34.1739 44.8535 34.3219 44.3601 34.0259C43.8667 33.7792 43.7186 33.1378 44.0147 32.6444Z" fill="#00D392"/>
<path d="M25.5916 43.8638L25.5422 43.9132C25.5916 43.9132 25.5916 43.8638 25.5916 43.8638Z" fill="#011138"/>
<path d="M25.6407 43.8149L25.5913 43.8643C25.5913 43.8149 25.6407 43.8149 25.6407 43.8149Z" fill="#0A1D56"/>
<path d="M29.7857 28.2725C29.6229 27.6706 29.613 27.0538 29.7216 26.4716C29.6032 26.447 29.4946 26.4124 29.3762 26.3828L24.689 33.4729L26.1198 39.4035L26.924 42.4823C27.2694 43.7651 26.9734 45.0479 26.2826 46.0347C26.332 45.936 26.3813 45.8867 26.48 45.788L32.1392 37.2967L32.1047 37.1536L29.7857 28.2725Z" fill="#011138"/>
<path d="M29.7461 26.4814C29.6573 27.0686 29.6869 27.6903 29.8843 28.3267L32.2032 37.2078L32.1391 37.3016L33.3874 42.1911C33.2887 41.303 33.486 40.3656 34.0288 39.5268L39.2587 31.2378L38.0894 26.6887H31.6851C31.0191 26.6887 30.3727 26.6147 29.751 26.4814H29.7461Z" fill="#0A1D56"/>
<path d="M29.8844 28.3219C29.6919 27.6854 29.6574 27.0638 29.7462 26.4766C29.7364 26.4766 29.7265 26.4717 29.7166 26.4717C29.6081 27.0539 29.6179 27.6706 29.7808 28.2726L32.0997 37.1537L32.1342 37.2968L32.1984 37.203L29.8794 28.3219H29.8844Z" fill="#0A1D56"/>
<path d="M24.6887 33.4779L24.1608 31.2872L19.9669 15.1532H22.7842C23.6279 11.9264 26.1639 9.40025 29.3957 8.57135C28.9664 7.99408 28.3892 7.53029 27.7132 7.25892C27.2198 7.06156 26.7264 6.96288 26.1343 6.96288H17.8947L17.0066 3.41045C16.4145 1.1359 14.0955 -0.196266 11.8753 0.395807C9.60565 0.98788 8.27348 3.25749 8.86555 5.52711L9.21093 6.95795L11.2338 14.8523L11.2832 15.1483L18.7334 44.6533C19.3255 46.9229 21.5951 48.255 23.8647 47.663C24.8022 47.4163 25.5916 46.8735 26.1343 46.1828L26.1837 46.1334L26.233 46.0841C26.9238 45.0973 27.2198 43.8145 26.8744 42.5317L26.1195 39.4035L24.6048 33.6012L24.6887 33.473V33.4779Z" fill="#0A1D56"/>
<path d="M24.6047 33.6014L26.1195 39.4037L24.6886 33.478L24.6047 33.6014Z" fill="#0A1D56"/>
<path d="M29.7209 26.4717C29.7209 26.4717 29.7422 26.477 29.7528 26.477L29.7209 26.4717Z" fill="#0A1D56"/>
<path d="M57.9532 10.4516C61.8263 10.4516 64.9791 13.6044 64.9791 17.4776C64.9791 21.3507 61.8263 24.5035 57.9532 24.5035H31.6602C27.787 24.5035 24.6342 21.3507 24.6342 17.4776C24.6342 13.6044 27.787 10.4516 31.6602 10.4516H57.9532ZM57.9532 9.46484H31.6602C27.2344 9.46484 23.6475 13.0518 23.6475 17.4776C23.6475 21.9033 27.2344 25.4903 31.6602 25.4903H57.9532C62.3789 25.4903 65.9659 21.9033 65.9659 17.4776C65.9659 13.0518 62.3789 9.46484 57.9532 9.46484Z" fill="#0A1D56"/>
<path d="M32.5238 13.6582V16.4064H29.3316V13.6582H27.1853V21.3107H29.3316V18.4244H32.5238V21.3107H34.6701V13.6582H32.5238Z" fill="#0A1D56"/>
<path d="M42.4365 18.8881C43.1124 18.3849 43.4874 17.5757 43.4874 16.5741C43.4874 14.8028 42.3477 13.6631 40.5862 13.6631H35.3267V21.286H37.4631V19.4407H40.083L41.7605 21.286H44.6321L42.4315 18.8931L42.4365 18.8881ZM37.4631 15.8044H40.5862C41.1388 15.8044 41.3609 16.0314 41.3609 16.5889C41.3609 17.1859 41.1339 17.4277 40.5862 17.4277H37.4631V15.8044Z" fill="#0A1D56"/>
<path d="M52.4173 14.4081C52.2644 13.8801 51.8894 13.5742 51.3861 13.5742C50.9372 13.5742 50.5622 13.8308 50.3747 14.265L48.781 17.921L47.1874 14.2699C47.0048 13.8407 46.6052 13.5792 46.1512 13.5792C45.6184 13.5792 45.2385 13.8851 45.125 14.3192L43.7139 19.4801L45.3865 21.286L46.3831 17.6151L47.6906 20.6347C47.888 21.1034 48.2679 21.3748 48.7416 21.3748C49.0672 21.3748 49.5112 21.2465 49.7875 20.6396L51.1098 17.6102L52.1114 21.286H54.2824L52.4124 14.413L52.4173 14.4081Z" fill="#0A1D56"/>
<path d="M59.6309 16.436H56.5916C56.3104 16.436 56.2561 16.3127 56.2561 16.1252C56.2561 15.9278 56.3153 15.8045 56.6015 15.8045H61.8611V13.6582H56.6015C55.0818 13.6582 54.0654 14.6055 54.0654 16.0117C54.0654 17.4179 55.1016 18.3948 56.5867 18.3948H59.6359C60.1095 18.3948 60.1095 18.5872 60.1095 18.7599C60.1095 18.8734 60.1095 19.1349 59.6359 19.1349H54.169L54.7463 21.2811H59.6359C61.19 21.2811 62.1916 20.324 62.1916 18.8438C62.1916 17.3636 61.2591 16.436 59.6359 16.436H59.6309Z" fill="#0A1D56"/>
</g>
<defs>
<clipPath id="clip0_825_12346">
<rect width="66" height="47.5484" fill="white" transform="translate(0 0.257812)"/>
</clipPath>
</defs>
</svg>
