<?xml version="1.0" encoding="UTF-8"?>
<svg version="1.1" xmlns="http://www.w3.org/2000/svg" width="128" height="128">
<path d="M0 0 C3.0656253 2.00204101 4.47814172 3.40160389 5.62109375 6.90234375 C6.52508112 11.75778105 5.65886653 14.74581356 3 19 C3.598125 19.20625 4.19625 19.4125 4.8125 19.625 C7.91439253 21.57476102 8.69763021 23.61383854 10 27 C10 28.98 10 30.96 10 33 C6.04 33 2.08 33 -2 33 C-2 34.32 -2 35.64 -2 37 C-0.700625 37.061875 0.59875 37.12375 1.9375 37.1875 C9.04854589 37.96141509 14.4405106 41.72731376 20 46 C20.24234375 45.46890625 20.4846875 44.9378125 20.734375 44.390625 C22.69412559 40.26007376 24.46628972 37.02889453 28 34 C27.34 33.34 26.68 32.68 26 32 C24.84104562 28.16653553 24.94520664 26.17960044 26.125 22.3125 C28.16434491 18.70965733 29.17307369 17.47858517 33 16 C36.36742108 15.5101933 38.75992466 15.2509612 41.74609375 17.0546875 C43.93918102 18.83229781 45.72792969 20.45585937 47 23 C47.40601504 31.39097744 47.40601504 31.39097744 45 35 C45.804375 35.763125 46.60875 36.52625 47.4375 37.3125 C51.67523505 41.75695383 51 43.44367191 51 50 C42.42 50.33 33.84 50.66 25 51 C26.65 54.96 28.3 58.92 30 63 C30.3125 67.25 30.3125 67.25 30 70 C31.32 70 32.64 70 34 70 C33.896875 69.13375 33.79375 68.2675 33.6875 67.375 C34.02195833 63.76285002 34.90270532 61.87207949 37.375 59.203125 C40.34278885 57.0058198 43.38172415 56.67707072 47 57 C50.66630514 58.5479955 53.21110971 60.42221941 55 64 C55.57594825 68.87756171 55.46495439 72.67896442 53 77 C54.485 77.495 54.485 77.495 56 78 C59.75892015 82.59423574 59 84.37151958 59 91 C49.43 91 39.86 91 30 91 C30 82 30 82 33 78.5 C33.556875 77.8296875 34.11375 77.159375 34.6875 76.46875 C35.3371875 75.74171875 35.3371875 75.74171875 36 75 C34.02 75 32.04 75 30 75 C29.97421875 75.64066406 29.9484375 76.28132813 29.921875 76.94140625 C29.51623293 83.12744785 28.29612831 86.78999074 25 92 C25 92.99 25 93.98 25 95 C25.80824219 94.94199219 26.61648437 94.88398437 27.44921875 94.82421875 C36.26457776 94.45203833 36.26457776 94.45203833 40.1875 97.375 C43.06415426 101.54118893 43.26364829 103.90279965 43 109 C42 111.4375 42 111.4375 41 113 C41.804375 113.94875 42.60875 114.8975 43.4375 115.875 C47.24166401 120.36196268 47 121.2282797 47 128 C37.1 128 27.2 128 17 128 C18.16964286 118.64285714 18.16964286 118.64285714 22 114 C22.66 114 23.32 114 24 114 C23.484375 113.01 22.96875 112.02 22.4375 111 C20.54916535 106.68506709 21.12065956 103.55658228 22 99 C17.56661667 99.81721352 14.35637321 102.19709834 10.6328125 104.625 C7.7264702 106.14285236 5.23974636 106.62218701 2 107 C2.02320312 108.26457031 2.04640625 109.52914062 2.0703125 110.83203125 C2.08907126 112.4921816 2.10727135 114.15233833 2.125 115.8125 C2.14175781 116.64587891 2.15851563 117.47925781 2.17578125 118.33789062 C2.18222656 119.14033203 2.18867187 119.94277344 2.1953125 120.76953125 C2.20578613 121.50792236 2.21625977 122.24631348 2.22705078 123.00708008 C2 125 2 125 0 128 C-2.3125 128.3984375 -2.3125 128.3984375 -5 128.375 C-5.886875 128.38273438 -6.77375 128.39046875 -7.6875 128.3984375 C-8.450625 128.26695312 -9.21375 128.13546875 -10 128 C-12.06723714 124.89914429 -12.24497423 124.27068319 -12.1953125 120.76953125 C-12.18886719 119.96708984 -12.18242188 119.16464844 -12.17578125 118.33789062 C-12.15902344 117.50451172 -12.14226563 116.67113281 -12.125 115.8125 C-12.11597656 114.96751953 -12.10695312 114.12253906 -12.09765625 113.25195312 C-12.07410703 111.16784757 -12.03823647 109.08388783 -12 107 C-12.89332031 106.88527344 -13.78664062 106.77054687 -14.70703125 106.65234375 C-17.88185068 106.02340562 -19.92368223 105.18799143 -22.6875 103.5625 C-23.43386719 103.13066406 -24.18023437 102.69882813 -24.94921875 102.25390625 C-26.6578693 101.20918849 -28.33362907 100.11091396 -30 99 C-30.66 99 -31.32 99 -32 99 C-31.773125 100.175625 -31.54625 101.35125 -31.3125 102.5625 C-30.69924163 107.2116614 -31.8610235 109.89316512 -34 114 C-33.1028125 114.2784375 -33.1028125 114.2784375 -32.1875 114.5625 C-28.89389867 116.72686659 -28.24148981 119.33760506 -27 123 C-27 124.65 -27 126.3 -27 128 C-36.9 128 -46.8 128 -57 128 C-57 121.01942357 -56.91654732 120.068473 -53 115 C-52.34 114.01 -51.68 113.02 -51 112 C-51.66 111.01 -52.32 110.02 -53 109 C-53.49359386 104.63992093 -53.27521864 102.49539354 -51.125 98.625 C-49 96 -49 96 -47 95 C-44.95944995 94.92934383 -42.91665743 94.91578024 -40.875 94.9375 C-39.77929688 94.94652344 -38.68359375 94.95554687 -37.5546875 94.96484375 C-36.71164063 94.97644531 -35.86859375 94.98804687 -35 95 C-35.6883449 91.85535069 -36.78106535 89.07367759 -38.0625 86.125 C-39.65107753 82.24818263 -40.4468576 79.24514719 -40 75 C-41.98 75 -43.96 75 -46 75 C-45.566875 75.4846875 -45.13375 75.969375 -44.6875 76.46875 C-44.130625 77.1390625 -43.57375 77.809375 -43 78.5 C-42.443125 79.1496875 -41.88625 79.799375 -41.3125 80.46875 C-40 83 -40 83 -40 91 C-49.57 91 -59.14 91 -69 91 C-69 81.70588235 -69 81.70588235 -65 77 C-64.34 77 -63.68 77 -63 77 C-63.48146484 76.14535156 -63.48146484 76.14535156 -63.97265625 75.2734375 C-65.66385482 71.53093724 -65.66084862 68.02074211 -65 64 C-63.69002109 61.06321007 -62.60208873 60.16840727 -60 58 C-56.02594437 56.58183902 -53.07533862 56.54596814 -49.1875 58.1875 C-46.93439819 60.05435578 -45.39806601 61.42461525 -44 64 C-43.8125 67.25 -43.8125 67.25 -44 70 C-42.68 70 -41.36 70 -40 70 C-40.12375 68.5459375 -40.12375 68.5459375 -40.25 67.0625 C-40.27560809 62.87130892 -38.78584809 59.73299321 -36.97265625 56.015625 C-35.88889915 53.8791949 -35.88889915 53.8791949 -35 51 C-47.87 50.505 -47.87 50.505 -61 50 C-61 42.47276366 -60.31472151 39.31472151 -55 34 C-55.66 33.01 -56.32 32.02 -57 31 C-57.76579737 24.32662295 -57.76579737 24.32662295 -55.94921875 21.1796875 C-54.17251621 19.00990918 -52.52491118 17.26245559 -50 16 C-45.88176382 15.60401575 -43.45541935 15.78517955 -39.6875 17.5625 C-36.33256078 20.60535185 -35.61554816 22.53727586 -35 27 C-35.875 30.3125 -35.875 30.3125 -37 33 C-37.20910985 35.22195388 -37.20910985 35.22195388 -35.1875 37.25 C-32.96961729 40.03819541 -31.49800928 42.77928004 -30 46 C-29.443125 45.60167969 -28.88625 45.20335937 -28.3125 44.79296875 C-22.12352574 40.49623155 -15.88233808 36.2610308 -8 37 C-8 35.68 -8 34.36 -8 33 C-11.96 33 -15.92 33 -20 33 C-19.41159559 23.14422616 -19.41159559 23.14422616 -15 19 C-14.34 19 -13.68 19 -13 19 C-13.495 18.13375 -13.99 17.2675 -14.5 16.375 C-16.09257429 12.79170785 -16.49276851 10.86001998 -16 7 C-12.51889134 -0.29375147 -7.51448165 -1.13855783 0 0 Z " fill="#040303" transform="translate(69,0)"/>
<path d="M0 0 C7.14546496 5.00455275 12.9611922 12.07926346 14.796875 20.74609375 C16.04857981 30.53720693 14.01730176 39.23884177 7.96484375 47.13671875 C2.67342039 52.77255428 -4.12398117 57.38028284 -12.0234375 57.94921875 C-21.99001596 58.09058866 -30.77534694 56.92449796 -38.203125 49.74609375 C-45.19813092 41.13812176 -48.34581373 32.85556752 -47.203125 21.74609375 C-45.41314667 12.49787239 -40.05519486 5.35718085 -32.40625 0 C-22.06944507 -5.88318153 -10.33680493 -5.88318153 0 0 Z " fill="#64CDE9" transform="translate(80.203125,45.25390625)"/>
<path d="M0 0 C7.14546496 5.00455275 12.9611922 12.07926346 14.796875 20.74609375 C16.04857981 30.53720693 14.01730176 39.23884177 7.96484375 47.13671875 C2.67342039 52.77255428 -4.12398117 57.38028284 -12.0234375 57.94921875 C-21.99001596 58.09058866 -30.77534694 56.92449796 -38.203125 49.74609375 C-45.19813092 41.13812176 -48.34581373 32.85556752 -47.203125 21.74609375 C-45.41314667 12.49787239 -40.05519486 5.35718085 -32.40625 0 C-22.06944507 -5.88318153 -10.33680493 -5.88318153 0 0 Z M-36.2890625 8.55078125 C-41.47706905 14.50110712 -43.5753343 21.19598481 -43.484375 28.984375 C-42.8557716 35.15691118 -40.20078344 41.78759083 -35.92578125 46.36328125 C-29.234442 51.73456038 -21.84474469 54.82185657 -13.2265625 54.32421875 C-5.93232684 52.92945534 0.67022418 49.72963774 5.359375 43.87109375 C9.87638197 36.83575547 11.94700453 30.14988111 10.796875 21.74609375 C8.73204074 14.33481362 4.20884378 7.58353092 -2.3046875 3.39453125 C-14.61428114 -2.65152358 -26.42580123 -0.89424986 -36.2890625 8.55078125 Z " fill="#BFC4CC" transform="translate(80.203125,45.25390625)"/>
<path d="M0 0 C5.79431232 5.09725219 9.30351213 10.70669218 10.3125 18.375 C10.71038844 26.33276877 8.11595206 32.5615779 4 39.25 C-1.34622599 44.97226024 -9.27336083 48.32356262 -17 48.75 C-24.57584184 48.31254981 -31.48394087 45.37042354 -36.98046875 40.1015625 C-42.14702194 33.64656024 -44.64788576 26.78674575 -44.34375 18.51171875 C-43.26892934 10.65819959 -38.82581719 4.21257328 -33 -1 C-22.29153087 -8.04397399 -10.50720417 -7.12233303 0 0 Z M-36.8125 9.18359375 C-40.0356432 14.11373056 -40.98370781 20.23236579 -40 26 C-37.11432736 34.65701791 -32.3053245 38.92849634 -24.625 43.375 C-17.13107417 45.15926805 -11.01436729 44.36015297 -4.265625 40.625 C0.56734056 37.15859711 4.57986432 31.82255627 6 26 C6.84438134 19.28452967 5.72223918 13.6922265 2 8 C-2.59938739 2.95891778 -7.14099494 -0.53059478 -14.05078125 -1.37109375 C-24.45705263 -1.58295796 -30.33378145 1.03237993 -36.8125 9.18359375 Z " fill="#0A0D0F" transform="translate(81,51)"/>
<path d="M0 0 C2.97 0 5.94 0 9 0 C12 3 12 3 12.2578125 4.97265625 C12.21398437 5.66230469 12.17015625 6.35195312 12.125 7.0625 C11.69454314 10.7852268 11.69454314 10.7852268 13 13 C13.13415472 15.6723621 13.04318541 18.32250488 13 21 C11.35 21 9.7 21 8 21 C7.67 18.36 7.34 15.72 7 13 C6.01 12.67 5.02 12.34 4 12 C4 14.97 4 17.94 4 21 C2.68 21 1.36 21 0 21 C0 14.07 0 7.14 0 0 Z " fill="#0D1B1F" transform="translate(66,62)"/>
<path d="M0 0 C1.32 0 2.64 0 4 0 C4 2.64 4 5.28 4 8 C5.32 8 6.64 8 8 8 C8 5.36 8 2.72 8 0 C9.32 0 10.64 0 12 0 C12 6.6 12 13.2 12 20 C10.68 20 9.36 20 8 20 C8 17.36 8 14.72 8 12 C6.35 12 4.7 12 3 12 C3 14.64 3 17.28 3 20 C2.01 20 1.02 20 0 20 C0 13.4 0 6.8 0 0 Z " fill="#020506" transform="translate(50,62)"/>
<path d="M0 0 C3.4375 0.8125 3.4375 0.8125 5.4375 3.8125 C4.99305556 9.25694444 4.99305556 9.25694444 2.4375 11.8125 C-1 12.1875 -1 12.1875 -4.5625 11.8125 C-6.5625 10.1875 -6.5625 10.1875 -7.5625 7.8125 C-7.4375 4.6875 -7.4375 4.6875 -6.5625 1.8125 C-3.5625 -0.1875 -3.5625 -0.1875 0 0 Z " fill="#E0C2A7" transform="translate(114.5625,62.1875)"/>
<path d="M0 0 C3.4375 0.8125 3.4375 0.8125 5.4375 3.8125 C5.25 6.875 5.25 6.875 4.4375 9.8125 C0.96707297 12.12611802 -0.48084173 12.32270728 -4.5625 11.8125 C-6.5 10.1875 -6.5 10.1875 -7.5625 7.8125 C-7.4375 4.6875 -7.4375 4.6875 -6.5625 1.8125 C-3.5625 -0.1875 -3.5625 -0.1875 0 0 Z " fill="#E1C3A9" transform="translate(15.5625,62.1875)"/>
<path d="M0 0 C1.9375 1.0625 1.9375 1.0625 3 3 C2.875 6.5625 2.875 6.5625 2 10 C-1.23253796 12.15502531 -2.25150923 12.46856135 -6 12 C-7.8125 10.9375 -7.8125 10.9375 -9 9 C-9.375 5.4375 -9.375 5.4375 -9 2 C-5.53076119 -0.31282587 -4.07794425 -0.42478586 0 0 Z " fill="#E6C7AC" transform="translate(26,21)"/>
<path d="M0 0 C2 2 2 2 2.3125 4.9375 C2 8 2 8 0.875 9.875 C-1.88090884 11.52854531 -3.85075452 11.39365568 -7 11 C-8.875 9.875 -8.875 9.875 -10 8 C-10.4375 5 -10.4375 5 -10 2 C-6.94783427 -1.63912068 -4.35383535 -1.23043173 0 0 Z " fill="#E6C7AC" transform="translate(68,5)"/>
<path d="M0 0 C1.8125 1.125 1.8125 1.125 3 3 C3.39365568 6.14924548 3.52854531 8.11909116 1.875 10.875 C-0.88090884 12.52854531 -2.85075452 12.39365568 -6 12 C-7.9375 10.9375 -7.9375 10.9375 -9 9 C-8.875 5.4375 -8.875 5.4375 -8 2 C-4.76746204 -0.15502531 -3.74849077 -0.46856135 0 0 Z " fill="#E7C8AD" transform="translate(104,99)"/>
<path d="M0 0 C2.15502531 3.23253796 2.46856135 4.25150923 2 8 C0.875 9.8125 0.875 9.8125 -1 11 C-4.14924548 11.39365568 -6.11909116 11.52854531 -8.875 9.875 C-10.52854531 7.11909116 -10.39365568 5.14924548 -10 2 C-7.65569181 -2.27491494 -4.20074737 -1.06928115 0 0 Z " fill="#E7C8AD" transform="translate(31,100)"/>
<path d="M0 0 C1.875 1.125 1.875 1.125 3 3 C3.39310741 6.14485925 3.47555213 8.13281671 1.9375 10.9375 C-1.21566824 12.66665678 -3.62508255 11.8590699 -7 11 C-9.15502531 7.76746204 -9.46856135 6.74849077 -9 3 C-6.73529086 -0.64869805 -4.03159541 -0.50394943 0 0 Z " fill="#E7C8AD" transform="translate(108,21)"/>
<path d="M0 0 C1.32 0 2.64 0 4 0 C4 5.61 4 11.22 4 17 C2.68 17 1.36 17 0 17 C0 11.39 0 5.78 0 0 Z " fill="#919AA5" transform="translate(62,107)"/>
<path d="M0 0 C3.10652645 0.3358407 4.60414303 0.59049279 6.8125 2.875 C8 5 8 5 8 8 C5.36 8 2.72 8 0 8 C0 5.36 0 2.72 0 0 Z " fill="#4EB698" transform="translate(16,79)"/>
<path d="M0 0 C0 2.64 0 5.28 0 8 C-2.64 8 -5.28 8 -8 8 C-7.6641593 4.89347355 -7.40950721 3.39585697 -5.125 1.1875 C-3 0 -3 0 0 0 Z " fill="#CB6171" transform="translate(112,79)"/>
<path d="M0 0 C3.78520613 0.54074373 5.59177555 2.07572746 8 5 C8 5.99 8 6.98 8 8 C5.36 8 2.72 8 0 8 C0 5.36 0 2.72 0 0 Z " fill="#D0D2D6" transform="translate(103,116)"/>
<path d="M0 0 C0 2.64 0 5.28 0 8 C-2.64 8 -5.28 8 -8 8 C-7.65978036 4.82461668 -6.97533396 3.97723135 -4.5625 1.75 C-2 0 -2 0 0 0 Z " fill="#E6C466" transform="translate(25,116)"/>
<path d="M0 0 C0 2.64 0 5.28 0 8 C-2.64 8 -5.28 8 -8 8 C-6.65580512 3.85539913 -4.87800266 0 0 0 Z " fill="#D6D9DD" transform="translate(99,116)"/>
<path d="M0 0 C3.88862987 1.26117725 5.89375599 2.45264167 8 6 C8 6.66 8 7.32 8 8 C5.36 8 2.72 8 0 8 C0 5.36 0 2.72 0 0 Z " fill="#EBC868" transform="translate(29,116)"/>
<path d="M0 0 C3.88862987 1.26117725 5.89375599 2.45264167 8 6 C8 6.66 8 7.32 8 8 C5.36 8 2.72 8 0 8 C0 5.36 0 2.72 0 0 Z " fill="#57CAA9" transform="translate(66,21)"/>
<path d="M0 0 C0 2.64 0 5.28 0 8 C-2.64 8 -5.28 8 -8 8 C-6.65580512 3.85539913 -4.87800266 0 0 0 Z " fill="#57CBA9" transform="translate(62,21)"/>
<path d="M0 0 C3.65316671 1.24976756 4.78065836 1.67098753 7 5 C7 5.99 7 6.98 7 8 C4.69 8 2.38 8 0 8 C0 5.36 0 2.72 0 0 Z " fill="#DD6A7B" transform="translate(116,79)"/>
<path d="M0 0 C0 2.64 0 5.28 0 8 C-2.31 8 -4.62 8 -7 8 C-6.65930765 4.84859577 -6.41923159 3.39218439 -4.0625 1.1875 C-2 0 -2 0 0 0 Z " fill="#55C7A6" transform="translate(12,79)"/>
<path d="M0 0 C0 2.31 0 4.62 0 7 C-2.31 7 -4.62 7 -7 7 C-6.22006468 2.47637516 -4.81844319 0 0 0 Z " fill="#F6D26D" transform="translate(103,38)"/>
<path d="M0 0 C3.23490776 0.55774272 4.97855006 1.37211508 7 4 C7 4.99 7 5.98 7 7 C4.69 7 2.38 7 0 7 C0 4.69 0 2.38 0 0 Z " fill="#EA7082" transform="translate(25,38)"/>
<path d="M0 0 C2.375 0.6875 2.375 0.6875 5 2 C6.3125 4.625 6.3125 4.625 7 7 C4.69 7 2.38 7 0 7 C0 4.69 0 2.38 0 0 Z " fill="#F4D06C" transform="translate(108,38)"/>
<path d="M0 0 C0 2.31 0 4.62 0 7 C-2.31 7 -4.62 7 -7 7 C-4.60526316 0 -4.60526316 0 0 0 Z " fill="#E76F81" transform="translate(20,38)"/>
</svg>
