<svg width="18" height="18" viewBox="0 0 18 18" fill="none" xmlns="http://www.w3.org/2000/svg">
<g clip-path="url(#clip0_552_1578)">
<path d="M14.25 16.5H3.75C1.68225 16.5 0 14.8177 0 12.75V5.25C0 3.18225 1.68225 1.5 3.75 1.5H14.25C16.3177 1.5 18 3.18225 18 5.25V12.75C18 14.8177 16.3177 16.5 14.25 16.5ZM3.75 3C2.5095 3 1.5 4.0095 1.5 5.25V12.75C1.5 13.9905 2.5095 15 3.75 15H14.25C15.4905 15 16.5 13.9905 16.5 12.75V5.25C16.5 4.0095 15.4905 3 14.25 3H3.75ZM13.5 9.75H10.5C9.67275 9.75 9 9.07725 9 8.25V6.75C9 5.92275 9.67275 5.25 10.5 5.25H13.5C14.3273 5.25 15 5.92275 15 6.75V8.25C15 9.07725 14.3273 9.75 13.5 9.75ZM10.5 6.75V8.25H13.5007V6.75H10.5ZM7.5 9C7.5 8.586 7.164 8.25 6.75 8.25H3.75C3.336 8.25 3 8.586 3 9C3 9.414 3.336 9.75 3.75 9.75H6.75C7.164 9.75 7.5 9.414 7.5 9ZM15 12C15 11.586 14.664 11.25 14.25 11.25H3.75C3.336 11.25 3 11.586 3 12C3 12.414 3.336 12.75 3.75 12.75H14.25C14.664 12.75 15 12.414 15 12Z" fill="#545454"/>
</g>
<defs>
<clipPath id="clip0_552_1578">
<rect width="18" height="18" fill="white"/>
</clipPath>
</defs>
</svg>
