<svg width="18" height="18" viewBox="0 0 18 18" fill="none" xmlns="http://www.w3.org/2000/svg">
<g clip-path="url(#clip0_552_1562)">
<path d="M16.2488 12.1856L14.2677 14.3328L13.2888 13.2723L14.4629 12.0003H9.69199V10.5003H14.5072L13.2888 9.17957L14.2677 8.11907L16.2488 10.2656C16.7376 10.7951 16.7376 11.6561 16.2488 12.1856ZM4.49953 8.25032C3.92636 8.25032 3.46118 8.75432 3.46118 9.37532C3.46118 9.99632 3.92636 10.5003 4.49953 10.5003C5.0727 10.5003 5.53789 9.99632 5.53789 9.37532C5.53789 8.75432 5.0727 8.25032 4.49953 8.25032ZM9.6913 13.5003H11.0758V18.0003H0V3.15032C0 2.08232 0.701927 1.15457 1.66898 0.944568L5.82309 0.0445685C6.43779 -0.0859315 7.06426 0.0828185 7.54745 0.511068C7.84372 0.774318 8.05139 1.12007 8.17599 1.50032H8.99976C10.1447 1.50032 11.0765 2.50982 11.0765 3.75032V9.00032H9.69199V3.75032C9.69199 3.33632 9.38187 3.00032 8.99976 3.00032H8.30752V16.5003H9.69199V13.5003H9.6913ZM6.92236 2.25107C6.92236 2.02532 6.83029 1.81382 6.669 1.67132C6.5084 1.52882 6.29727 1.47257 6.09444 1.51532L1.94103 2.41532C1.61845 2.48582 1.38447 2.79482 1.38447 3.15032V16.5003H6.92236V2.25107Z" fill="#545454"/>
</g>
<defs>
<clipPath id="clip0_552_1562">
<rect width="18" height="18" fill="white"/>
</clipPath>
</defs>
</svg>
