<svg width="18" height="18" viewBox="0 0 18 18" fill="none" xmlns="http://www.w3.org/2000/svg">
<g clip-path="url(#clip0_552_1553)">
<path d="M9 6.75C5.8935 6.75 3.375 9.2685 3.375 12.375C3.375 15.4815 5.8935 18 9 18C12.1065 18 14.625 15.4815 14.625 12.375C14.625 9.2685 12.1065 6.75 9 6.75ZM7.89075 11.43L10.3553 11.841C11.3085 11.9993 12 12.816 12 13.782C12 14.8672 11.1173 15.75 10.032 15.75H9.75V16.5H8.25V15.75C7.0095 15.75 6 14.7405 6 13.5H7.5C7.5 13.9132 7.83675 14.25 8.25 14.25H10.032C10.29 14.25 10.5 14.04 10.5 13.782C10.5 13.5517 10.335 13.3583 10.1093 13.32L7.64475 12.909C6.69225 12.7507 6.00075 11.934 6.00075 10.968C6.00075 9.88275 6.8835 9 7.96875 9H8.25075V8.25H9.75075V9C10.9913 9 12.0007 10.0095 12.0007 11.25H10.5008C10.5008 10.8368 10.1648 10.5 9.75075 10.5H7.96875C7.71075 10.5 7.50075 10.71 7.50075 10.968C7.50075 11.1982 7.665 11.3917 7.8915 11.43H7.89075ZM18 3.75V18H13.362C13.9125 17.5725 14.3977 17.0678 14.802 16.5H16.4993V7.5H14.1855C13.6095 6.88725 12.9277 6.37875 12.1672 6H16.4993V3.75C16.4993 3.33675 16.1632 3 15.7493 3H2.25C1.83675 3 1.5 3.33675 1.5 3.75V6H5.832C5.0715 6.37875 4.38975 6.88725 3.81375 7.5H1.5V16.5H3.19725C3.6015 17.0678 4.0875 17.5725 4.63725 18H0V3.75C0 2.5095 1.0095 1.5 2.25 1.5H4.5V0H6V1.5H12V0H13.5V1.5H15.75C16.9905 1.5 18 2.5095 18 3.75Z" fill="#545454"/>
</g>
<defs>
<clipPath id="clip0_552_1553">
<rect width="18" height="18" fill="white"/>
</clipPath>
</defs>
</svg>
