<svg width="18" height="18" viewBox="0 0 18 18" fill="none" xmlns="http://www.w3.org/2000/svg">
<g clip-path="url(#clip0_552_1574)">
<path d="M17.2635 6.58875C16.8172 6.18225 16.2465 5.973 15.6368 6.00225C15.0338 6.03 14.478 6.29175 14.073 6.738L11.6602 9.3885C11.247 8.706 10.497 8.24925 9.6435 8.24925H6.75075V7.49925H7.03275C8.118 7.49925 9.00075 6.6165 9.00075 5.53125C9.00075 4.56525 8.3085 3.7485 7.356 3.59025L4.89225 3.17925C4.66575 3.14175 4.5015 2.9475 4.5015 2.71725C4.5015 2.45925 4.7115 2.24925 4.9695 2.24925H6.7515C7.1655 2.24925 7.5015 2.586 7.5015 2.99925H9.0015C9.0015 1.75875 7.992 0.74925 6.7515 0.74925V0H5.2515V0.75H4.9695C3.88425 0.75 3.0015 1.63275 3.0015 2.718C3.0015 3.684 3.69375 4.50075 4.64625 4.659L7.11 5.07C7.3365 5.1075 7.50075 5.30175 7.50075 5.532C7.50075 5.79 7.29075 6 7.03275 6H5.25075C4.83675 6 4.50075 5.66325 4.50075 5.25H3.00075C3.00075 6.4905 4.01025 7.5 5.25075 7.5V8.25H2.25C1.0095 8.25 0 9.2595 0 10.5V15.75C0 16.9905 1.0095 18 2.25 18H10.086L17.4263 9.76125C18.2467 8.8425 18.174 7.419 17.2635 6.58875ZM16.3073 8.763L9.41475 16.5H2.25C1.836 16.5 1.5 16.1632 1.5 15.75V10.5C1.5 10.0868 1.836 9.75 2.25 9.75H9.64275C10.1153 9.75 10.5 10.134 10.5 10.6065C10.5 11.0295 10.1835 11.3947 9.765 11.4548L5.89425 12.0075L6.1065 13.4918L9.97725 12.939C10.8585 12.813 11.574 12.198 11.8628 11.3947L15.183 7.74675C15.3187 7.59675 15.5055 7.50975 15.7073 7.5C15.9105 7.49475 16.1033 7.5615 16.2533 7.6965C16.5585 7.9755 16.5833 8.45325 16.3073 8.76225V8.763ZM13.5203 3.762H10.5008V2.262H13.5443L12.3915 1.1085L13.452 0.048L15.288 1.88475C15.5858 2.18175 15.75 2.57775 15.75 2.99925C15.75 3.42075 15.5858 3.81675 15.288 4.1145L13.4205 5.982L12.36 4.9215L13.5195 3.762H13.5203Z" fill="#545454"/>
</g>
<defs>
<clipPath id="clip0_552_1574">
<rect width="18" height="18" fill="white"/>
</clipPath>
</defs>
</svg>
