<svg width="17" height="16" viewBox="0 0 17 16" fill="none" xmlns="http://www.w3.org/2000/svg">
<path d="M9.625 6.5C9.625 6.7835 9.81132 7.0235 10.0678 7.07L12.1584 7.45025C13.0811 7.6175 13.75 8.48 13.75 9.5C13.75 10.7405 12.8246 11.75 11.6875 11.75V12.5H10.3125V11.75C9.17538 11.75 8.25 10.7405 8.25 9.5H9.625C9.625 9.91325 9.933 10.25 10.3125 10.25H11.6875C12.067 10.25 12.375 9.91325 12.375 9.5C12.375 9.2165 12.1887 8.9765 11.9323 8.93L9.84157 8.54975C8.91894 8.3825 8.25 7.52 8.25 6.5C8.25 5.2595 9.17538 4.25 10.3125 4.25V3.5H11.6875V4.25C12.8246 4.25 13.75 5.2595 13.75 6.5H12.375C12.375 6.08675 12.067 5.75 11.6875 5.75H10.3125C9.933 5.75 9.625 6.08675 9.625 6.5ZM16.5 2.75V15.5H0V2.75C0 1.5095 0.925375 0.5 2.0625 0.5H14.4375C15.5746 0.5 16.5 1.5095 16.5 2.75ZM15.125 2.75C15.125 2.33675 14.817 2 14.4375 2H2.0625C1.683 2 1.375 2.33675 1.375 2.75V14H15.125V2.75ZM2.75 5.75H6.875V4.25H2.75V5.75ZM2.75 8.75H6.875V7.25H2.75V8.75ZM2.75 11.75H6.875V10.25H2.75V11.75Z" fill="#545454"/>
</svg>
