<svg width="18" height="18" viewBox="0 0 18 18" fill="none" xmlns="http://www.w3.org/2000/svg">
<g clip-path="url(#clip0_552_1586)">
<path d="M6.975 13.2V18H5.775V13.2H4.35V12H8.475V13.2H6.975ZM12.3397 13.2203L13.425 18H12.2183L11.9745 16.95H9.85275L9.60525 18H8.4L9.50625 13.1865C9.60075 12.7515 10.029 12.0007 10.9185 12.0007C11.808 12.0007 12.2295 12.72 12.339 13.221L12.3397 13.2203ZM11.6955 15.75L11.1698 13.4858C11.1345 13.3268 11.0685 13.2 10.9193 13.2C10.77 13.2 10.7002 13.3447 10.68 13.4408L10.1355 15.75H11.6962H11.6955ZM18 12H16.641L15.825 13.6365L15.009 12H13.65L15.1455 15L13.65 18H15.009L15.825 16.3635L16.641 18H18L16.5045 15L18 12ZM1.5 2.25C1.5 1.83675 1.836 1.5 2.25 1.5H14.25C14.664 1.5 15 1.83675 15 2.25V10.5H16.5V2.25C16.5 1.0095 15.4905 0 14.25 0H2.25C1.0095 0 0 1.0095 0 2.25V18H4.5V16.5H1.5V2.25ZM13.5 7.5H3V3H13.5V7.5ZM12 4.5H4.5V6H12V4.5ZM3 10.5H4.5V9H3V10.5ZM7.5 10.5V9H6V10.5H7.5ZM10.5 10.5V9H9V10.5H10.5ZM13.5 10.5V9H12V10.5H13.5Z" fill="#545454"/>
</g>
<defs>
<clipPath id="clip0_552_1586">
<rect width="18" height="18" fill="white"/>
</clipPath>
</defs>
</svg>
